<?xml version="1.0" encoding="UTF-8"?>
<svg xmlns="http://www.w3.org/2000/svg" xmlns:xlink="http://www.w3.org/1999/xlink" width="21pt" height="21pt" viewBox="0 0 21 21" version="1.1">
<g id="surface1">
<path fill="#fefefe" style=" stroke:none;fill-rule:nonzero;fill:rgb(0%,0%,0%);fill-opacity:1;" d="M 11.117188 12.757812 C 10.730469 13.140625 10.730469 13.765625 11.117188 14.148438 C 11.308594 14.339844 11.558594 14.4375 11.8125 14.4375 C 12.0625 14.4375 12.316406 14.339844 12.507812 14.148438 L 15.460938 11.195312 C 15.484375 11.171875 15.507812 11.148438 15.527344 11.125 C 15.535156 11.113281 15.542969 11.101562 15.550781 11.089844 C 15.5625 11.074219 15.574219 11.0625 15.585938 11.046875 C 15.59375 11.03125 15.601562 11.019531 15.609375 11.003906 C 15.617188 10.992188 15.625 10.976562 15.632812 10.964844 C 15.640625 10.949219 15.648438 10.933594 15.65625 10.921875 C 15.660156 10.90625 15.667969 10.890625 15.675781 10.875 C 15.679688 10.863281 15.6875 10.847656 15.691406 10.832031 C 15.695312 10.816406 15.703125 10.800781 15.707031 10.785156 C 15.710938 10.769531 15.714844 10.757812 15.71875 10.742188 C 15.722656 10.726562 15.726562 10.710938 15.730469 10.691406 C 15.734375 10.675781 15.734375 10.660156 15.738281 10.640625 C 15.742188 10.625 15.742188 10.613281 15.746094 10.597656 C 15.75 10.566406 15.75 10.535156 15.75 10.5 C 15.75 10.464844 15.75 10.433594 15.746094 10.402344 C 15.742188 10.386719 15.742188 10.375 15.738281 10.359375 C 15.734375 10.34375 15.734375 10.324219 15.730469 10.308594 C 15.726562 10.292969 15.722656 10.273438 15.71875 10.257812 C 15.714844 10.242188 15.710938 10.230469 15.707031 10.214844 C 15.703125 10.199219 15.695312 10.183594 15.691406 10.167969 C 15.6875 10.152344 15.679688 10.136719 15.675781 10.125 C 15.667969 10.109375 15.660156 10.09375 15.65625 10.082031 C 15.648438 10.066406 15.640625 10.050781 15.632812 10.035156 C 15.625 10.023438 15.617188 10.011719 15.609375 9.996094 C 15.601562 9.980469 15.59375 9.96875 15.585938 9.953125 C 15.574219 9.9375 15.5625 9.925781 15.554688 9.910156 C 15.542969 9.898438 15.535156 9.886719 15.527344 9.875 C 15.507812 9.851562 15.484375 9.828125 15.464844 9.808594 C 15.464844 9.804688 15.460938 9.804688 15.460938 9.804688 L 12.507812 6.851562 C 12.125 6.464844 11.5 6.464844 11.117188 6.851562 C 10.730469 7.234375 10.730469 7.859375 11.117188 8.242188 L 12.390625 9.515625 L 0.984375 9.515625 C 0.441406 9.515625 0 9.957031 0 10.5 C 0 11.042969 0.441406 11.484375 0.984375 11.484375 L 12.390625 11.484375 Z M 11.117188 12.757812 "/>
<path fill="#fefefe" style=" stroke:none;fill-rule:nonzero;fill:rgb(0%,0%,0%);fill-opacity:1;" d="M 20.015625 1.640625 L 7.546875 1.640625 C 7.003906 1.640625 6.5625 2.082031 6.5625 2.625 L 6.5625 6.5625 C 6.5625 7.105469 7.003906 7.546875 7.546875 7.546875 C 8.089844 7.546875 8.53125 7.105469 8.53125 6.5625 L 8.53125 3.609375 L 19.03125 3.609375 L 19.03125 17.390625 L 8.53125 17.390625 L 8.53125 14.4375 C 8.53125 13.894531 8.089844 13.453125 7.546875 13.453125 C 7.003906 13.453125 6.5625 13.894531 6.5625 14.4375 L 6.5625 18.375 C 6.5625 18.917969 7.003906 19.359375 7.546875 19.359375 L 20.015625 19.359375 C 20.558594 19.359375 21 18.917969 21 18.375 L 21 2.625 C 21 2.082031 20.558594 1.640625 20.015625 1.640625 Z M 20.015625 1.640625 "/>
</g>
</svg>
